<!DOCTYPE svg PUBLIC "-//W3C//DTD SVG 1.1//EN" "http://www.w3.org/Graphics/SVG/1.1/DTD/svg11.dtd">
<!-- Uploaded to: SVG Repo, www.svgrepo.com, Transformed by: SVG Repo Mixer Tools -->
<svg version="1.1" id="Icons" xmlns="http://www.w3.org/2000/svg" xmlns:xlink="http://www.w3.org/1999/xlink" viewBox="0 0 32 32" xml:space="preserve" width="800px" height="800px" fill="#C4D3ED" stroke="#C4D3ED">
<g id="SVGRepo_bgCarrier" stroke-width="0"/>
<g id="SVGRepo_tracerCarrier" stroke-linecap="round" stroke-linejoin="round"/>
<g id="SVGRepo_iconCarrier"> <style type="text/css"> .st0{fill:none;stroke:#C4D3ED;stroke-width:2;stroke-linecap:round;stroke-linejoin:round;stroke-miterlimit:10;} .st1{fill:none;stroke:#C4D3ED;stroke-width:2;stroke-linecap:round;stroke-linejoin:round;} .st2{fill:none;stroke:#C4D3ED;stroke-width:2;stroke-linecap:round;stroke-linejoin:round;stroke-dasharray:6,6;} .st3{fill:none;stroke:#C4D3ED;stroke-width:2;stroke-linecap:round;stroke-linejoin:round;stroke-dasharray:4,4;} .st4{fill:none;stroke:#C4D3ED;stroke-width:2;stroke-linecap:round;} .st5{fill:none;stroke:#C4D3ED;stroke-width:2;stroke-linecap:round;stroke-dasharray:3.1081,3.1081;} .st6{fill:none;stroke:#C4D3ED;stroke-width:2;stroke-linecap:round;stroke-linejoin:round;stroke-miterlimit:10;stroke-dasharray:4,3;} </style> <path class="st0" d="M15,18V8c0-1.1-0.9-2-2-2h0c-1.1,0-2,0.9-2,2v13l-3-5.2c-0.6-1-1.8-1.3-2.8-0.6l0,0c-0.7,0.5-1.1,1.4-0.7,2.3 l0,0c1.6,4.3,4,8.4,7,11.9"/> <path class="st0" d="M15,18V6c0-1.1,0.9-2,2-2h0c1.1,0,2,0.9,2,2v12"/> <path class="st0" d="M19,18V8c0-1.1,0.9-2,2-2h0c1.1,0,2,0.9,2,2v10"/> <path class="st0" d="M23,18v-8c0-1.1,0.9-2,2-2h0c1.1,0,2,0.9,2,2v8v0c0,4-0.8,7.9-2.4,11.5"/> </g>
</svg>